REM DIRINDEX 1\2,1\3,1\4,1\5
REM DIRNAME folder01,folder02,folder03,folder04,folder05
TITLE ""
FILE "1Q_t_1237-1246.mp3" MP3
  TRACK 01 AUDIO
    TITLE "3:cjc004_4616"
    INDEX 01 00:00:00
  TRACK 02 AUDIO
    TITLE "0:"
    INDEX 01 00:01:01
  TRACK 03 AUDIO
    TITLE "4:cjc004_4617"
    INDEX 01 00:01:26
  TRACK 04 AUDIO
    TITLE "0:"
    INDEX 01 00:02:69
  TRACK 05 AUDIO
    TITLE "5:cjc004_4618"
    INDEX 01 00:03:21
  TRACK 06 AUDIO
    TITLE "0:"
    INDEX 01 00:07:60
  TRACK 07 AUDIO
    TITLE "3:cjc004_4619"
    INDEX 01 00:08:42
  TRACK 08 AUDIO
    TITLE "0:"
    INDEX 01 00:09:61
  TRACK 09 AUDIO
    TITLE "4:cjc004_4620"
    INDEX 01 00:10:12
  TRACK 10 AUDIO
    TITLE "0:"
    INDEX 01 00:11:56
  TRACK 11 AUDIO
    TITLE "5:cjc004_4621"
    INDEX 01 00:12:05
  TRACK 12 AUDIO
    TITLE "0:"
    INDEX 01 00:17:72
  TRACK 13 AUDIO
    TITLE "3:cjc004_4622"
    INDEX 01 00:18:46
  TRACK 14 AUDIO
    TITLE "0:"
    INDEX 01 00:19:58
  TRACK 15 AUDIO
    TITLE "4:cjc004_4623"
    INDEX 01 00:20:12
  TRACK 16 AUDIO
    TITLE "0:"
    INDEX 01 00:21:35
  TRACK 17 AUDIO
    TITLE "5:cjc004_4624"
    INDEX 01 00:21:62
  TRACK 18 AUDIO
    TITLE "0:"
    INDEX 01 00:25:68
  TRACK 19 AUDIO
    TITLE "3:cjc004_4625"
    INDEX 01 00:26:46
  TRACK 20 AUDIO
    TITLE "0:"
    INDEX 01 00:27:59
  TRACK 21 AUDIO
    TITLE "4:cjc004_4626"
    INDEX 01 00:28:12
  TRACK 22 AUDIO
    TITLE "0:"
    INDEX 01 00:29:17
  TRACK 23 AUDIO
    TITLE "5:cjc004_4627"
    INDEX 01 00:29:44
  TRACK 24 AUDIO
    TITLE "0:"
    INDEX 01 00:34:32
  TRACK 25 AUDIO
    TITLE "3:cjc004_4628"
    INDEX 01 00:35:10
  TRACK 26 AUDIO
    TITLE "0:"
    INDEX 01 00:36:21
  TRACK 27 AUDIO
    TITLE "4:cjc004_4629"
    INDEX 01 00:36:52
  TRACK 28 AUDIO
    TITLE "0:"
    INDEX 01 00:38:04
  TRACK 29 AUDIO
    TITLE "5:cjc004_4630"
    INDEX 01 00:38:26
  TRACK 30 AUDIO
    TITLE "0:"
    INDEX 01 00:43:48
  TRACK 31 AUDIO
    TITLE "3:cjc004_4631"
    INDEX 01 00:44:24
  TRACK 32 AUDIO
    TITLE "0:"
    INDEX 01 00:45:26
  TRACK 33 AUDIO
    TITLE "4:cjc004_4632"
    INDEX 01 00:45:55
  TRACK 34 AUDIO
    TITLE "0:"
    INDEX 01 00:46:54
  TRACK 35 AUDIO
    TITLE "5:cjc004_4633"
    INDEX 01 00:47:01
  TRACK 36 AUDIO
    TITLE "0:"
    INDEX 01 00:51:22
  TRACK 37 AUDIO
    TITLE "3:cjc004_4634"
    INDEX 01 00:51:73
  TRACK 38 AUDIO
    TITLE "0:"
    INDEX 01 00:53:19
  TRACK 39 AUDIO
    TITLE "4:cjc004_4635"
    INDEX 01 00:53:43
  TRACK 40 AUDIO
    TITLE "0:"
    INDEX 01 00:54:58
  TRACK 41 AUDIO
    TITLE "5:cjc004_4636"
    INDEX 01 00:55:06
  TRACK 42 AUDIO
    TITLE "0:"
    INDEX 01 00:58:56
  TRACK 43 AUDIO
    TITLE "3:cjc004_4637"
    INDEX 01 00:59:34
  TRACK 44 AUDIO
    TITLE "0:"
    INDEX 01 01:00:39
  TRACK 45 AUDIO
    TITLE "4:cjc004_4638"
    INDEX 01 01:00:70
  TRACK 46 AUDIO
    TITLE "0:"
    INDEX 01 01:02:34
  TRACK 47 AUDIO
    TITLE "5:cjc004_4639"
    INDEX 01 01:02:63
  TRACK 48 AUDIO
    TITLE "0:"
    INDEX 01 01:07:14
  TRACK 49 AUDIO
    TITLE "3:cjc004_4640"
    INDEX 01 01:07:61
  TRACK 50 AUDIO
    TITLE "0:"
    INDEX 01 01:08:66
  TRACK 51 AUDIO
    TITLE "4:cjc004_4641"
    INDEX 01 01:09:18
  TRACK 52 AUDIO
    TITLE "0:"
    INDEX 01 01:10:33
  TRACK 53 AUDIO
    TITLE "5:cjc004_4642"
    INDEX 01 01:10:63
  TRACK 54 AUDIO
    TITLE "0:"
    INDEX 01 01:15:13
  TRACK 55 AUDIO
    TITLE "3:cjc004_4643"
    INDEX 01 01:15:68
  TRACK 56 AUDIO
    TITLE "0:"
    INDEX 01 01:17:14
  TRACK 57 AUDIO
    TITLE "4:cjc004_4644"
    INDEX 01 01:17:41
  TRACK 58 AUDIO
    TITLE "0:"
    INDEX 01 01:19:03
  TRACK 59 AUDIO
    TITLE "5:cjc004_4645"
    INDEX 01 01:19:32
  TRACK 60 AUDIO
    TITLE "0:"
    INDEX 01 01:23:62
